<?xml version="1.0" encoding="UTF-8" standalone="no"?>
<!-- Created with Inkscape (http://www.inkscape.org/) -->

<svg
   width="210mm"
   height="297mm"
   viewBox="0 0 210 297"
   version="1.1"
   id="svg1"
   xml:space="preserve"
   inkscape:version="1.4.1 (93de688d07, 2025-03-30)"
   sodipodi:docname="logo.svg"
   xmlns:inkscape="http://www.inkscape.org/namespaces/inkscape"
   xmlns:sodipodi="http://sodipodi.sourceforge.net/DTD/sodipodi-0.dtd"
   xmlns="http://www.w3.org/2000/svg"
   xmlns:svg="http://www.w3.org/2000/svg"><sodipodi:namedview
     id="namedview1"
     pagecolor="#505050"
     bordercolor="#eeeeee"
     borderopacity="1"
     inkscape:showpageshadow="0"
     inkscape:pageopacity="0"
     inkscape:pagecheckerboard="0"
     inkscape:deskcolor="#505050"
     inkscape:document-units="mm"
     inkscape:zoom="0.50835204"
     inkscape:cx="-250.81044"
     inkscape:cy="628.50146"
     inkscape:window-width="1920"
     inkscape:window-height="1016"
     inkscape:window-x="0"
     inkscape:window-y="0"
     inkscape:window-maximized="1"
     inkscape:current-layer="svg1" /><defs
     id="defs1" /><g
     inkscape:groupmode="layer"
     id="layer2"
     inkscape:label="arrow"><path
       id="path2-0"
       style="display:inline;fill:#fc8732;stroke-width:0.571157"
       inkscape:transform-center-x="-0.14266491"
       inkscape:transform-center-y="-0.55294191"
       d="M 108.68502 56.707462 A 41.733948 40.435719 0 0 0 66.951243 97.143066 A 41.733948 40.435719 0 0 0 67.256383 102.0231 L 67.250078 102.0202 L 67.265005 102.09262 L 67.265647 102.09622 A 41.733948 40.435719 0 0 0 68.440275 107.84862 L 69.136324 111.25722 L 73.313274 120.79798 L 81.616898 133.9575 L 109.60665 171.15815 L 111.6112 173.21015 L 116.16872 166.61706 L 123.06865 155.89675 L 131.09972 143.2982 L 139.13717 130.88352 L 143.63764 122.63507 L 146.28971 116.8405 L 148.12401 111.34873 L 149.17572 107.17159 L 149.3044 106.42642 A 41.733948 40.435719 0 0 0 149.91661 102.88825 L 150.20848 101.20029 A 41.733948 40.435719 0 0 0 150.20844 101.19926 L 150.2485 100.96837 L 150.23122 100.9772 A 41.733948 40.435719 0 0 0 150.419 97.143155 A 41.733948 40.435719 0 0 0 108.68502 56.707462 z M 108.70468 80.113846 A 18.838924 18.700239 79.703765 0 1 127.43402 98.972524 A 18.838924 18.700239 79.703765 0 1 108.75439 117.78281 A 18.838924 18.700239 79.703765 0 1 90.024547 98.924663 A 18.838924 18.700239 79.703765 0 1 108.70468 80.113846 z "
       transform="matrix(0.99946782,0.03262028,-0.03475103,0.999396,0,0)" /></g><g
     inkscape:groupmode="layer"
     id="layer3"
     inkscape:label="book_left"><path
       style="opacity:0.587846;fill:#ffffff;fill-opacity:1;stroke-width:0.264583"
       d="m 58.292936,121.53036 c -18.389294,-6.16174 -17.345503,-5.17033 -25.504803,-7.4142 0,0 -3.855065,-1.65939 -4.269098,1.33085 -0.414034,2.99024 -6.789302,72.70385 -6.789302,72.70385 0,0 -1.040945,3.64331 3.51319,3.12284 4.554137,-0.52047 17.798712,1.54056 18.867134,1.88671 2.646147,0.8573 23.250037,6.32621 29.992235,9.56368 16.93312,8.13096 25.175938,14.71299 25.177864,14.70336 0,0 2.342124,2.79754 2.342124,-0.65059 0,-3.44814 0.13012,-30.12236 0.13012,-30.12236 l 0.0651,-1.33371 c 0,0 0.17891,-0.0976 -0.97588,-1.44757 -1.154805,-1.34997 -4.684259,-6.45711 -15.93948,-23.11223 -11.255222,-16.65513 -23.161032,-36.30297 -23.161032,-36.30297 0,0 0.975886,-0.26024 -3.448132,-2.92766 z"
       id="path15"
       sodipodi:nodetypes="ccscssscsccsscsc" /><path
       style="opacity:0.676;fill:#ffffff;fill-opacity:1;stroke-width:0.264583"
       d="m 181.09075,114.63859 c 0,0 -1.15628,-1.05604 -2.76699,-0.66787 -5.92922,1.42892 -22.48379,5.52081 -27.56621,8.33446 -2.73877,1.5162 -3.07481,3.74763 -3.2959,4.23389 -0.3722,0.81865 -27.51495,43.20838 -36.77274,55.96974 -1.95526,2.69522 -1.78001,3.69841 -1.78001,3.95051 0,2.01683 0.13012,15.80936 0.13012,15.80936 l -10e-6,4.03367 c 0,0 0.27787,11.49549 0.30604,11.60604 0.10997,0.43172 0.76683,0.86037 1.15351,0.28899 0.14858,-0.21954 3.79331,-2.83424 3.98674,-2.96576 0.43914,-0.29859 4.03206,-2.98781 9.25567,-5.82329 1.44799,-0.78601 12.14332,-6.16402 13.79838,-6.85353 1.84992,-0.77071 6.70674,-2.40802 10.34026,-3.75131 7.26703,-2.68658 14.69476,-4.62443 16.89873,-5.04114 4.40794,-0.83341 7.91027,-1.34385 8.36949,-1.42329 2.89512,-0.50086 11.82097,-1.25706 14.70254,-1.36201 1.10629,-0.0403 1.45431,0.24437 1.27342,-2.72038 -1.14949,-18.83921 -7.18994,-72.20944 -7.18994,-72.20944"
       id="path16"
       sodipodi:nodetypes="csssssccssssssssssc" /><path
       style="opacity:0.688;fill:#ffffff;fill-opacity:1;stroke-width:0.264583"
       d="m 21.552653,130.16186 c 0,0 0.07949,-1.44247 -0.928925,-1.86535 -1.008415,-0.42289 -3.350542,0.0651 -3.350542,0.0651 0,0 -0.878298,0.26023 -1.333711,0.97588 -0.455414,0.71565 -0.74818,0.52047 -0.975886,1.62648 -0.227707,1.106 -0.260237,1.91924 -0.325296,2.76501 -0.06506,0.84577 -2.212009,21.56708 -2.212009,21.56708 l -5.139667,47.68831 -0.4320633,3.15833 c 0,0 -1.0120818,5.52044 4.2783453,5.19842 5.290428,-0.32203 14.215149,-0.46004 14.215149,-0.46004 l 20.71378,1.73204 c 0,0 20.038197,3.6433 27.194697,6.63602 7.156498,2.99272 6.570967,2.27707 6.570967,2.27707 l 8.002267,3.90354 c 0,0 0.845767,-0.45541 2.992718,2.60237 2.146948,3.05777 5.269786,5.53002 5.269786,5.53002 0,0 2.472243,1.88671 7.026377,1.95177 4.55414,0.0651 8.13239,0.26024 11.12511,-2.01683 2.99271,-2.27707 5.26978,-4.78184 5.85531,-5.75773 0.29276,-0.48794 0.65059,-0.92709 1.01655,-1.26052 0.36595,-0.33343 17.92981,-10.30659 43.46514,-13.31588 0.32947,-0.0388 3.79869,-1.49406 34.41845,-2.02704 3.02617,-0.0527 5.53587,-0.42032 5.02672,-5.98541 -0.0428,-0.46791 -0.83209,-9.15006 -1.12005,-10.56673 -0.25024,-1.23111 -2.93717,-31.80575 -3.90228,-34.63527 -0.71686,-2.10166 -1.84011,-27.12144 -3.36144,-29.48573 -1.65469,-2.57156 -2.64802,-2.38373 -6.13345,-1.98186 -1.86202,0.21469 0.83676,16.62887 2.57655,33.58765 1.81474,17.68937 4.07739,34.66866 3.94206,36.01846 -0.11658,1.16279 -1.46389,1.67299 -4.09885,1.98067 -1.92954,0.22531 -5.45652,0.30731 -6.50665,0.31649 -4.39919,0.0385 -8.58377,0.67271 -13.3938,1.19926 -4.47844,0.49025 -8.31404,1.41413 -13.3294,2.30844 -3.5728,0.63709 -8.18947,2.30993 -9.19951,2.58995 -2.37089,0.65729 -9.00863,2.90238 -14.97257,4.99388 -5.3818,1.88735 -12.37308,5.79627 -13.12862,6.10945 -2.32761,0.96484 -5.2472,3.01774 -7.77427,5.2997 -2.52706,2.28197 -4.96361,4.66455 -7.96723,4.56933 -2.15706,-0.0684 -5.683985,-1.60009 -6.153127,-2.15589 -3.082689,-3.65211 -8.196683,-6.76197 -9.323801,-7.21657 -3.509054,-1.41528 -12.331374,-6.58827 -14.777818,-7.31403 -2.969604,-0.88096 -17.913637,-6.33898 -20.171077,-6.30443 -2.257439,0.0345 -8.871077,-2.41552 -10.135416,-2.41003 -1.26434,0.005 -1.993753,-0.006 -2.111487,-0.038 -5.105498,-1.39808 -24.066566,-2.4002 -25.957906,-2.62127 -1.865866,-0.2181 -2.343263,-1.75964 -1.963838,-3.36052 0.379424,-1.60088 0.90002,-6.77428 0.90002,-6.77428"
       id="path17"
       sodipodi:nodetypes="cscssscccsccsccscssssssssssssssssssssssssssssssc" /></g></svg>
